# xmcd CD database file
#
# Track frame offsets:
#        150
#        29177
#        44777
#        64654
#        81680
#        92482
#        108610
#        125112
#        143263
#        168314
#        180840
#        195691
#
# Disc length: 2864 seconds
#
# Revision: 0
# Processed by: cddbd v1.5.2PL0 Copyright (c) Steve Scherf et al.
# Submitted via: CUERipper 2.1.5
#
DISCID=ac0b2e0c
DTITLE=Various Artist - 壮志凌云DTS-CD
DYEAR=2000
DGENRE=Soundtrack
TTITLE0=壮志凌云
TTITLE1=教父
TTITLE2=飞狼
TTITLE3=单程车票
TTITLE4=打碎玻璃
TTITLE5=手提箱女郎
TTITLE6=小喇叭
TTITLE7=樱桃树下
TTITLE8=越战猎鹿人
TTITLE9=霹雳小姐
TTITLE10=最高机密
TTITLE11=牛仔的梦想曲
EXTD=
EXTT0=
EXTT1=
EXTT2=
EXTT3=
EXTT4=
EXTT5=
EXTT6=
EXTT7=
EXTT8=
EXTT9=
EXTT10=
EXTT11=
PLAYORDER=
